# xmcd
#
# Track frame offsets:
# 150
# 30711
# 59714
# 77213
# 101632
# 116479
# 120316
# 126779
# 158545
# 180680
# 198808
# 213285
# 251588
# 253993
#
# Disc length: 3470 seconds
#
#
# Revision: 0
# Processed by: cddbd v1.5.2PL0 Copyright (c) Steve Scherf et al.
# Submitted via: FreeRIP 2.951 
#
DISCID=bf0d8c0e
DTITLE=Ray Carlisle - The Reality Of Truckin
DYEAR=2007
DGENRE=Country
TTITLE0=Ray's Radio
TTITLE1=The Heartbeat
TTITLE2=Chrome
TTITLE3=Worried and Unhappy
TTITLE4=Truck Track
TTITLE5=Big Cabin
TTITLE6=Race to Amarillo
TTITLE7=Cow Truckin'
TTITLE8=Good Advice
TTITLE9=Little Ray
TTITLE10=Briefcase
TTITLE11=Serenity
TTITLE12=The Right Gear
TTITLE13=I'm Back Out!
EXTD=
EXTT0=
EXTT1=
EXTT2=
EXTT3=
EXTT4=
EXTT5=
EXTT6=
EXTT7=
EXTT8=
EXTT9=
EXTT10=
EXTT11=
EXTT12=
EXTT13=
PLAYORDER=
